<?xml version="1.0" encoding="utf-8"?>
<!-- Generator: Adobe Illustrator 18.0.0, SVG Export Plug-In . SVG Version: 6.00 Build 0)  -->
<!DOCTYPE svg PUBLIC "-//W3C//DTD SVG 1.1//EN" "http://www.w3.org/Graphics/SVG/1.1/DTD/svg11.dtd">
<svg version="1.1" xmlns="http://www.w3.org/2000/svg" xmlns:xlink="http://www.w3.org/1999/xlink" x="0px" y="0px"
	 viewBox="0 0 100 100" enable-background="new 0 0 100 100" xml:space="preserve">
<g id="guides">
</g>
<g id="background">
	<rect fill="#158FEF" width="100" height="100"/>
</g>
<g id="graphic">
	<g>
		<polygon fill="#FEDD12" points="58.3,32.5 82,25.8 83.6,28.8 65.3,44.6 		"/>
		<circle fill="#EE252C" cx="86" cy="25.2" r="5.5"/>
		<g>
			<defs>
				<circle id="SVGID_1_" cx="86" cy="25.2" r="5.5"/>
			</defs>
			<clipPath id="SVGID_2_">
				<use xlink:href="#SVGID_1_"  overflow="visible"/>
			</clipPath>
			<path clip-path="url(#SVGID_2_)" fill="#AA0F22" d="M80.5,25.8c0,0,1.4,2.2,5.8,1.9c4.6-0.3,5.3-3.2,5.3-3.2s2.4,6.2-4.3,6.9
				C80.7,32.2,80.5,25.8,80.5,25.8z"/>
		</g>
		<g>
			<defs>
				<polygon id="SVGID_3_" points="58.3,32.5 82,25.8 83.6,28.8 65.3,44.6 				"/>
			</defs>
			<clipPath id="SVGID_4_">
				<use xlink:href="#SVGID_3_"  overflow="visible"/>
			</clipPath>
			<path clip-path="url(#SVGID_4_)" fill="#E69527" d="M68.2,26.5c0,0,3,2,5.2,6.2c2.2,4.2,2.4,7.1,2.4,7.1L72,42.8l-7.1-14.2
				L68.2,26.5z"/>
		</g>
		<path fill="#D1D6DA" d="M64.8,66.2c0,0,0.6,4,2.4,5.6c1.8,1.6,3.9,1.8,3.9,1.8s-5.3,2.2-9.9-2.4c-4.6-4.6-1.5-7.9-1.5-7.9
			L64.8,66.2z"/>
		<g>
			<defs>
				<path id="SVGID_5_" d="M64.8,66.2c0,0,0.6,4,2.4,5.6c1.8,1.6,3.9,1.8,3.9,1.8s-5.3,2.2-9.9-2.4c-4.6-4.6-1.5-7.9-1.5-7.9
					L64.8,66.2z"/>
			</defs>
			<clipPath id="SVGID_6_">
				<use xlink:href="#SVGID_5_"  overflow="visible"/>
			</clipPath>
			<path clip-path="url(#SVGID_6_)" fill="#B2B5B7" d="M55,74.1c0,0,7.7,0,12.8-3.3c5-3.3-2.3-7.5-2.3-7.5l-10.4,6V74.1z"/>
		</g>
		<path fill="#EE252C" d="M45.2,72.8c0,0,4.5,1.5,5.8,6.4c1.1,4.5-0.5,7.1-0.5,7.1s0.7,3.9,6.5,3c5.5-0.8,4.4-5.6,4.4-5.6
			s-3.8-3.4-4-7.3c-0.2-3.9,1-6.1,1-6.1L45.2,72.8z"/>
		<g>
			<defs>
				<path id="SVGID_7_" d="M45.2,72.8c0,0,5.2,1.4,5.8,6.4c0.5,5-0.5,7.1-0.5,7.1s0.7,3.9,6.5,3c5.5-0.8,4.4-5.6,4.4-5.6
					s-3.8-3.4-4-7.3c-0.2-3.9,1-6.1,1-6.1L45.2,72.8z"/>
			</defs>
			<clipPath id="SVGID_8_">
				<use xlink:href="#SVGID_7_"  overflow="visible"/>
			</clipPath>
			<path clip-path="url(#SVGID_8_)" fill="#AA0F22" d="M53.4,68.5c0,0-1.7,13.4,2.8,15.8c3.3,1.8,5.2,0,5.2,0l-1.9-15.8H53.4z"/>
			<path clip-path="url(#SVGID_8_)" fill="#AA0F22" d="M46.1,72c0,0,4.2,1.9,8.2,0.9c4-1.1,3.8-3.1,3.8-3.1L46.1,72z"/>
		</g>
		<path fill="#E69527" d="M47.1,22.2c0,0-10-5.4-21.8-3C13.6,21.6,8.4,30.1,8.4,30.1s7.4,1.8,9.5,6.4c2.1,4.6,1.6,5.9,1.6,5.9
			L47.1,22.2z"/>
		<path fill="#FEDD12" d="M44.3,16.7c0,0-11.2-1.9-21.5,4.6c-10.3,6.5-12.4,16.8-12.4,16.8s7.6-0.8,11.1,3c3.5,3.8,3.5,5.4,3.5,5.4
			L44.3,16.7z"/>
		<path fill="#EE252C" d="M48.5,14.4c-3,0.7-6,1.8-9,3.2C21.5,26.3,12.3,44.8,19,58.8c6.8,14.1,26.9,18.4,45,9.7
			c3.4-1.7,6.6-3.7,9.3-5.9L67,35.2L48.5,14.4z"/>
		<polygon fill="#FFFFFF" points="37.5,38.2 39.8,51 43.3,48.5 47.9,56.3 45.8,43.5 42,45.7 		"/>
		<path fill="#AA0F22" d="M29.2,52.3c0,0-1.5-10.5,8.5-15.5c9.6-4.8,16.9,2.1,16.9,2.1s-9.2-13.1-20.5-4.8
			C22.8,42.5,29.2,52.3,29.2,52.3z"/>
		<g>
			<defs>
				<path id="SVGID_9_" d="M48.5,14.4c-3,0.7-6,1.8-9,3.2C21.5,26.3,12.3,44.8,19,58.8c6.8,14.1,26.9,18.4,45,9.7
					c3.4-1.7,6.6-3.7,9.3-5.9L67,35.2L48.5,14.4z"/>
			</defs>
			<clipPath id="SVGID_10_">
				<use xlink:href="#SVGID_9_"  overflow="visible"/>
			</clipPath>
			<g clip-path="url(#SVGID_10_)">
				<path fill="#AA0F22" d="M30.3,74.1c0,0,2.5-1,3.3-4.9c0.5-2.4,0-4,0-4S42,70,51.9,65.5c11.8-5.3,10.6-18,10.6-18l4.1-1.3
					l-2.1-3.9l-5.3,2.2c0,0,1.4,12.9-8.7,17.4c-10,4.4-20.3-3.4-20.3-3.4l-4.6,4l-6,1.3L30.3,74.1z"/>
			</g>
		</g>
		<polygon fill="#FEDD12" points="53.6,35.1 63.1,29.2 69.1,42.8 59.5,46.3 		"/>
		<path fill="#FEDD12" d="M25.9,52.3c0,0-2.9,1-5.4,4.2c-2.1,2.7-3.1,5.6-3.1,5.6l6.3,2.3c0,0-1.2,1.9-3.9,3.1
			C17,68.7,15.5,69,15.5,69s5,3.9,10.9,1.9c5.5-1.9,5.7-6.9,5.7-6.9l-4.4-2.1l3.6-2L25.9,52.3z"/>
		<path fill="#FEDD12" d="M24.9,47.6c0-9.9,8.1-18,18-18c9.9,0,18,8.1,18,18c0,9.9-8.1,18-18,18C33,65.5,24.9,57.5,24.9,47.6z
			 M42.9,62.1c8,0,14.5-6.5,14.5-14.5S50.9,33,42.9,33s-14.5,6.5-14.5,14.5S34.9,62.1,42.9,62.1z"/>
		<path fill="#D1D6DA" d="M47.3,14.5c0,0,5.1,7.5,13.4,24.3c8,16.2,11.7,25.1,11.7,25.1l6.8-1.9c0,0-2.5-14.6-10.5-29
			c-8.2-14.8-16-22.4-16-22.4L47.3,14.5z"/>
		<g>
			<defs>
				<path id="SVGID_11_" d="M47.3,14.5c0,0,5.1,7.5,13.4,24.3c8,16.2,11.7,25.1,11.7,25.1l6.8-1.9c0,0-2.5-14.6-10.5-29
					c-8.2-14.8-16-22.4-16-22.4L47.3,14.5z"/>
			</defs>
			<clipPath id="SVGID_12_">
				<use xlink:href="#SVGID_11_"  overflow="visible"/>
			</clipPath>
			<g clip-path="url(#SVGID_12_)">
				<polygon fill="#EFEFEF" points="52.6,26.5 62.6,19.3 52.6,7.8 45.7,12.5 				"/>
				<polygon fill="#EFEFEF" points="54.2,27.9 64.3,21.2 66.5,25.2 55.3,30.8 				"/>
				<polygon fill="#B2B5B7" points="66.5,54 77.8,49.7 80.5,62.6 71.1,65.5 				"/>
			</g>
		</g>
	</g>
</g>
</svg>
