<?xml version="1.0" encoding="utf-8"?>
<!-- Generator: Adobe Illustrator 18.1.1, SVG Export Plug-In . SVG Version: 6.00 Build 0)  -->
<!DOCTYPE svg PUBLIC "-//W3C//DTD SVG 1.1//EN" "http://www.w3.org/Graphics/SVG/1.1/DTD/svg11.dtd">
<svg version="1.1" id="Layer_1" xmlns="http://www.w3.org/2000/svg" xmlns:xlink="http://www.w3.org/1999/xlink" x="0px" y="0px"
	 viewBox="0 0 146 60" enable-background="new 0 0 146 60" xml:space="preserve">
<rect fill="#FFF000" width="60" height="60"/>
<path d="M30,13.8c-6.6,0-12,5.4-12,12v17.1c0,1.7,1.4,3.1,3.1,3.1c1.7,0,3.1-1.4,3.1-3.1v-6.5c1.7,0.9,3.7,1.5,5.7,1.5
	c6.6,0,12-5.4,12-12C42,19.2,36.6,13.8,30,13.8z M30,31.6c-3.2,0-5.7-2.6-5.7-5.8c0-3.2,2.6-5.7,5.7-5.7c3.2,0,5.7,2.6,5.7,5.7
	C35.8,29,33.2,31.6,30,31.6z"/>
<g>
	<path fill="#FFFFFF" d="M81.1,36V25.3h5.6c2,0,3.1,1.3,3.1,2.7c0,1.3-0.8,2.2-1.8,2.4c1.1,0.2,2,1.3,2,2.6c0,1.6-1.1,2.9-3.1,2.9
		H81.1z M87.4,28.4c0-0.7-0.5-1.2-1.2-1.2h-2.8v2.3h2.8C86.9,29.6,87.4,29.1,87.4,28.4z M87.6,32.8c0-0.7-0.5-1.2-1.4-1.2h-2.9V34
		h2.9C87.1,34,87.6,33.6,87.6,32.8z"/>
	<path fill="#FFFFFF" d="M99.3,36V25.3h2.3V34h4.5v2H99.3z"/>
	<path fill="#FFFFFF" d="M114.4,30.7c0-3.2,2.4-5.5,5.6-5.5c3.2,0,5.6,2.3,5.6,5.5c0,3.2-2.4,5.5-5.6,5.5
		C116.8,36.2,114.4,33.9,114.4,30.7z M123.3,30.7c0-2-1.3-3.5-3.2-3.5s-3.2,1.5-3.2,3.5c0,2,1.3,3.5,3.2,3.5S123.3,32.7,123.3,30.7z
		"/>
	<path fill="#FFFFFF" d="M134.4,30.7c0-3.4,2.6-5.5,5.7-5.5c2.2,0,3.6,1.1,4.4,2.4l-1.9,1c-0.5-0.8-1.4-1.4-2.5-1.4
		c-1.9,0-3.3,1.5-3.3,3.5c0,2,1.4,3.5,3.3,3.5c0.9,0,1.8-0.4,2.3-0.8v-1.3h-2.8v-2h5.1v4.1c-1.1,1.2-2.6,2-4.5,2
		C136.9,36.2,134.4,34,134.4,30.7z"/>
</g>
</svg>
