<svg id="Layer_1" data-name="Layer 1" xmlns="http://www.w3.org/2000/svg" viewBox="0 0 658.05 204.81"><defs><style>.cls-1{fill:#369;}.cls-2{opacity:0.7;}.cls-3{opacity:0.35;}</style></defs><title>logo-full-color</title><path class="cls-1" d="M237.22,316.38q-0.22-2.41-.64-4.75C232.39,288.51,213.47,271,190.82,271c-25.71,0-46.62,22.55-46.62,50.27s20.91,50.27,46.62,50.27c14.35,0,27.2-7,35.76-18.06v17.82h10.7C237.28,317.09,237.28,317.09,237.22,316.38Zm-46.4,44.46c-19.81,0-35.92-17.75-35.92-39.57S171,281.7,190.82,281.7s35.92,17.75,35.92,39.57c0,1.21-.06,2.4-0.15,3.58h0V325C224.87,345.07,209.48,360.84,190.82,360.84Z" transform="translate(-91.92 -195.23)"/><path class="cls-1" d="M247.81,291a5.92,5.92,0,0,1-5.05-2.82c-12.62-20.5-30.6-31.34-52-31.34-28.92,0-45.18,19.4-52.29,31a5.93,5.93,0,0,1-10.1-6.21,81.94,81.94,0,0,1,23.28-24.71A68.44,68.44,0,0,1,190.78,245c25.35,0,47.39,13.13,62.07,37A5.93,5.93,0,0,1,247.81,291Z" transform="translate(-91.92 -195.23)"/><g class="cls-2"><path class="cls-1" d="M266.63,272.3a5.92,5.92,0,0,1-4.9-2.58c-8-11.72-31-39-70.66-39h0c-30.12,0-52.92,12.26-71.76,38.59a5.93,5.93,0,0,1-9.64-6.9c21-29.3,47.58-43.54,81.4-43.55,45.34,0,71.36,30.86,80.45,44.12A5.93,5.93,0,0,1,266.63,272.3Z" transform="translate(-91.92 -195.23)"/></g><g class="cls-3"><path class="cls-1" d="M283.06,255.87a5.92,5.92,0,0,1-5-2.71c-13.75-21.26-44.87-46.08-87.3-46.08-51.58,0-78.75,31.81-88,45.49a5.93,5.93,0,1,1-9.81-6.66c10.35-15.24,40.59-50.68,97.84-50.68,47.19,0,81.88,27.74,97.25,51.49A5.93,5.93,0,0,1,283.06,255.87Z" transform="translate(-91.92 -195.23)"/></g><path class="cls-1" d="M284.24,368a30.9,30.9,0,0,1-23.77-11.62v40.48h-11V331.91c0-20.3,15.09-36.2,34.59-36.2,19,0,34.46,15.5,34.46,36.2S303.34,368,284.24,368Zm-0.13-61.71c-12.56,0-23.24,11.35-23.24,25.65s10.55,25.65,23.24,25.65,23.1-11.22,23.1-25.65S296.8,306.27,284.11,306.27Z" transform="translate(-91.92 -195.23)"/><path class="cls-1" d="M355.19,366.25c-16,1.86-27.12-7.62-27.12-25.12V282.76h11.22v14.69h15.63v10.82H339.29v32.86c0,12.16,7.34,15.23,15.9,14.7v10.42Z" transform="translate(-91.92 -195.23)"/><path class="cls-1" d="M427.59,344.87c-5.35,14.7-16.84,23-32.72,23-19.77,0-35.27-15.76-35.27-35.93,0-19.91,15.49-36.2,34.59-36.2,15,0,29.53,10.42,33.53,28.32L375,346.35a23.49,23.49,0,0,0,19.91,10.82c9.75,0,16.56-4.27,21-12.29h11.75Zm-56.24-8.41,42.48-17.9c-4.27-7.48-11.89-12.16-19.64-12.16-10.95,0-23.24,9.62-23.24,25.38A25.85,25.85,0,0,0,371.35,336.46Z" transform="translate(-91.92 -195.23)"/><path class="cls-1" d="M437.35,266.86h11.22v73.87c0,12.15,7.48,15.22,16,14.83v10.69c-16.17,1.86-27.25-7.62-27.25-25.12V266.86Z" transform="translate(-91.92 -195.23)"/><path class="cls-1" d="M473.82,287v-8.54a5.68,5.68,0,0,1,11.35,0V287H473.82Zm11.35,79.22H473.82v-68.8h11.35v68.8Z" transform="translate(-91.92 -195.23)"/><path class="cls-1" d="M565.46,363c0,22-14.16,37-35.4,37-16.16,0-28.86-8.68-32.46-22.71h12c4.53,10.29,15.49,11.76,20.43,11.76,17.77,0,24.17-13.63,24.17-26.05v-6.54A28.85,28.85,0,0,1,530.73,368c-19,0-34.34-15.5-34.34-36.07s15.49-36.2,34.59-36.2c19.51,0,34.47,15.9,34.47,36.2V363ZM531,306.14c-12.81,0-23.24,11.35-23.24,25.78s10.42,25.52,23.24,25.52,23.24-11.36,23.24-25.52S543.55,306.14,531,306.14Z" transform="translate(-91.92 -195.23)"/><path class="cls-1" d="M642.54,344.87c-5.34,14.7-16.83,23-32.73,23-19.77,0-35.26-15.76-35.26-35.93,0-19.91,15.49-36.2,34.6-36.2,15,0,29.52,10.42,33.53,28.32l-52.76,22.31a23.49,23.49,0,0,0,19.9,10.82c9.75,0,16.57-4.27,21-12.29h11.75Zm-56.24-8.41,42.48-17.9c-4.27-7.48-11.88-12.16-19.64-12.16-11,0-23.23,9.62-23.23,25.38A25.84,25.84,0,0,0,586.3,336.46Z" transform="translate(-91.92 -195.23)"/><path class="cls-1" d="M664.19,366.25H653V324.43c0-17.36,12.29-28.72,28.72-28.72s28.58,11.35,28.58,28.72v41.81H699.06V324c0-10.29-6.81-17.76-17.36-17.76s-17.5,7.48-17.5,17.76v42.21Z" transform="translate(-91.92 -195.23)"/><path class="cls-1" d="M750,366.25c-16,1.86-27.12-7.62-27.12-25.12V282.76h11.22v14.69H749.7v10.82H734.07v32.86c0,12.16,7.35,15.23,15.9,14.7v10.42Z" transform="translate(-91.92 -195.23)"/></svg>