<?xml version="1.0" encoding="utf-8"?>

<!DOCTYPE svg PUBLIC "-//W3C//DTD SVG 1.1//EN" "http://www.w3.org/Graphics/SVG/1.1/DTD/svg11.dtd">
<svg version="1.1" xmlns="http://www.w3.org/2000/svg" xmlns:xlink="http://www.w3.org/1999/xlink" x="0px"
	 y="0px" width="339.275px" height="339.27px" viewBox="0 0 339.275 339.27" enable-background="new 0 0 339.275 339.27"
	 xml:space="preserve">
<path fill="#FBB040" d="M339.275,169.64c0,93.684-75.957,169.63-169.642,169.63C75.949,339.27,0,263.325,0,169.64
	C0,75.953,75.949,0,169.634,0C263.318,0,339.275,75.953,339.275,169.64z"/>
<polygon points="253.364,172.776 241.744,153.859 266.262,120.995 198.5,151.893 197.126,142.599 216.928,112.115 214.088,107.093
	223.226,71.249 187.708,106.569 185.565,87.065 196.194,57.819 182.014,62.314 169.641,26.501 157.266,62.314 143.087,57.819 
	153.708,87.065 151.574,106.569 116.05,71.249 125.193,107.093 122.354,112.115 142.156,142.599 140.781,151.893 73.018,120.995 
	97.536,153.859 85.909,172.776 137.961,197.635 138.789,205.918 99.333,194.127 119.165,217.619 120.826,225.074 145.007,235.337 
	147.49,242.378 136.655,238.063 165.881,270.129 167.336,297.614 167.336,320.993 172.363,320.993 172.363,296.656 173.393,270.129 
	202.627,238.063 191.792,242.378 194.275,235.337 218.454,225.074 220.111,217.619 239.942,194.127 200.487,205.918 
	201.315,197.635 "/>
</svg>