<svg xmlns="http://www.w3.org/2000/svg" width="512" height="512" viewBox="0 0 512 512"><path fill="#008cdb" d="M256 47C140 47 46 141 46 257s94 210 210 210 210-94 210-210S372 47 256 47zm102.3 212.4l-64.1 31.4-.3 10.1 48.4-14.6-24.5 28.2-2.1 9.6-29.3 12.2-3.7 9.3 12-3.7-34.6 37-1 62.5h-5l-2.1-62.5-34.6-37 12 3.7-3.7-9.3-29.4-12.3-2.1-9.6-24.5-28.2 48.4 14.6-.3-10.1-64.1-31.4 13.6-23.4-29-39.6 81.9 38 1.9-12.2-24.2-37.2 4.3-5.9-11.7-43.4 43.4 42.3 3.2-25-13-34.9 17.3 6.1 14.6-43 14.7 43.1 17.3-6.1-13 34.9 3.2 25 43.4-42.3-11.8 43.3 4.3 5.9-24.2 37.2 1.9 12.2 81.9-38-29 39.6 13.6 23.5z"/></svg>