<?xml version="1.0" encoding="utf-8"?>
<!-- Generator: Adobe Illustrator 18.0.0, SVG Export Plug-In . SVG Version: 6.00 Build 0)  -->
<!DOCTYPE svg PUBLIC "-//W3C//DTD SVG 1.1//EN" "http://www.w3.org/Graphics/SVG/1.1/DTD/svg11.dtd">
<svg version="1.1" xmlns="http://www.w3.org/2000/svg" xmlns:xlink="http://www.w3.org/1999/xlink" x="0px" y="0px"
	 viewBox="0 0 32 32" enable-background="new 0 0 32 32" xml:space="preserve">
<g id="bg">
</g>
<g id="art">
	<g>
		<g>
			<defs>
				<rect id="SVGID_9_" x="-945" y="276.5" width="1920" height="344.5"/>
			</defs>
			<clipPath id="SVGID_1_">
				<use xlink:href="#SVGID_9_"  overflow="visible"/>
			</clipPath>
			<polygon opacity="3.000000e-02" clip-path="url(#SVGID_1_)" fill="#2F3F76" points="1193.6,1271.9 -803,-507.5 1193.6,-507.5 			
				"/>
			<polygon opacity="5.000000e-02" clip-path="url(#SVGID_1_)" fill="#2F3F76" points="1145.2,-507.5 -729.6,1271.9 -973.1,1271.9 
				-973.1,-507.5 			"/>
			<g clip-path="url(#SVGID_1_)">
				<polygon opacity="3.000000e-02" fill="#2F3F76" points="1145.2,-507.5 -729.6,1271.9 -973.1,1271.9 -973.1,-507.5 				"/>
				<polygon opacity="3.000000e-02" fill="#2F3F76" points="1193.6,943.1 -440.2,-507.5 1193.6,-507.5 				"/>
			</g>
			<g clip-path="url(#SVGID_1_)">
				<polygon opacity="0.2" fill="#2F3F76" points="781.8,-507.5 -972,1160.1 -973,-508.3 				"/>
			</g>
		</g>
	</g>
	<g>
		<g>
			<defs>
				<rect id="SVGID_12_" x="-945" y="-425.5" width="1920" height="344.5"/>
			</defs>
			<clipPath id="SVGID_3_">
				<use xlink:href="#SVGID_12_"  overflow="visible"/>
			</clipPath>
			<polygon opacity="0.4" clip-path="url(#SVGID_3_)" fill="#2F3F76" points="-971.5,-625.7 279.8,569.9 -973.1,569.9 			"/>
			<polygon opacity="3.000000e-02" clip-path="url(#SVGID_3_)" fill="#2F3F76" points="1193.6,569.9 -803,-1209.5 1193.6,-1209.5 
							"/>
			<polygon opacity="5.000000e-02" clip-path="url(#SVGID_3_)" fill="#2F3F76" points="1145.2,-1209.5 -729.6,569.9 -973.1,569.9 
				-973.1,-1209.5 			"/>
			<g clip-path="url(#SVGID_3_)">
				<polygon opacity="3.000000e-02" fill="#2F3F76" points="1145.2,-1209.5 -729.6,569.9 -973.1,569.9 -973.1,-1209.5 				"/>
				<polygon opacity="3.000000e-02" fill="#2F3F76" points="1193.6,241.1 -440.2,-1209.5 1193.6,-1209.5 				"/>
			</g>
			<g clip-path="url(#SVGID_3_)">
				<polygon opacity="0.2" fill="#2F3F76" points="781.8,-1209.5 -972,458.1 -973,-1210.3 				"/>
			</g>
		</g>
	</g>
	<g>
		<g>
			<circle fill="none" stroke="#00F6FF" stroke-miterlimit="10" cx="15.9" cy="15.9" r="15"/>
			<path fill="#00F6FF" d="M23.4,11.3c-0.6,0.2-1.1,0.4-1.8,0.5c0.6-0.4,1.1-1,1.4-1.7c-0.6,0.4-1.3,0.6-2,0.7c-0.6-0.6-1.4-1-2.2-1
				c-1.7,0-3.1,1.4-3.1,3.1c0,0.2,0,0.5,0.1,0.7c-2.6-0.1-4.8-1.4-6.3-3.2c-0.3,0.5-0.4,1-0.4,1.5c0,1.1,0.5,2,1.4,2.6
				c-0.5,0-1-0.2-1.4-0.4c0,0,0,0,0,0c0,1.5,1.1,2.7,2.5,3c-0.3,0.1-0.5,0.1-0.8,0.1c-0.2,0-0.4,0-0.6-0.1c0.4,1.2,1.5,2.1,2.9,2.1
				c-1.1,0.8-2.4,1.3-3.8,1.3c-0.2,0-0.5,0-0.7,0c1.4,0.9,3,1.4,4.7,1.4c5.7,0,8.8-4.7,8.8-8.8c0-0.1,0-0.3,0-0.4
				C22.5,12.4,23,11.9,23.4,11.3z"/>
		</g>
	</g>
</g>
<g id="artboards" display="none">
	<rect display="inline" opacity="0.5" fill="#ED1E79" width="32" height="32"/>
</g>
</svg>
