<svg xmlns="http://www.w3.org/2000/svg" width="512" height="512" viewBox="0 0 512 512"><path fill="#008cdb" d="M256 47C140 47 46 141 46 257s94 210 210 210 210-94 210-210S372 47 256 47zm32.2 50.1c3.2.5 6.9 1.5 10.7 3 3.8 1.5 7.7 3.6 11.3 6.1 3.6 2.6 6.9 5.5 9.5 8.7 1.4 1.6 2.5 3.2 3.5 4.8 1 1.6 1.9 3.2 2.5 4.7 1.4 3 2.1 5.7 2.4 7.6.3 1.9.4 3 .4 3l-2.1-2.1c-.6-.7-1.4-1.5-2.2-2.4-.9-.9-2-1.8-3-2.9-1-1.1-2.3-2.1-3.5-3.3-1.2-1.2-2.5-2.3-4-3.5-1.4-1.2-2.8-2.3-4.4-3.5-1.5-1.2-3.1-2.3-4.6-3.4-1.5-1.2-3.2-2.1-4.8-3.3-1.6-1-3.2-2.1-4.8-3.1-3.2-2-6.2-3.8-8.8-5.4-5.2-3.1-9-5.5-9-5.5s4.5-.6 10.9.5zm.8 74.2c2.2 1.7 4.2 3.6 6 5.7 1 1 1.8 2.2 2.6 3.3.9 1.1 1.5 2.4 2.3 3.6.8 1.2 1.4 2.5 2 3.8.6 1.3 1.2 2.6 1.6 4l1.1 4.2c.4 1.4.5 2.8.7 4.2.1.8.2 1.7.3 2.5.4-.5.9-1.1 1.4-1.6 3.4-4 6.2-8.3 8.9-12.8 1.3-2.3 2.6-4.6 3.7-6.9.6-1.2 1.2-2.3 1.7-3.6.5-1.2 1.1-2.4 1.6-3.7 1-2.5 2-5 2.9-7.5 1-2.5 1.7-5.2 2.6-7.8.1 2.7.3 5.6 0 8.3-.1 2.8-.5 5.6-1 8.4-.2 1.4-.6 2.7-.9 4.1-.3 1.4-.7 2.7-1.1 4.1-.8 2.7-1.9 5.4-2.9 8-2.2 5.3-5.2 10.2-8.4 14.9-3.3 4.6-7.2 8.9-10.8 12.8-1.8 1.9-4.8 2-6.7.2-1.2-1.1-1.7-2.7-1.4-4.2v-.2l.6-3.5c.1-1.2.5-2.4.5-3.5.1-2.4.3-4.7.1-7.1-.1-1.2 0-2.4-.3-3.5l-.6-3.5c-.2-1.2-.7-2.2-1-3.4-.3-1.2-.7-2.3-1.2-3.4s-.9-2.2-1.5-3.3c-.6-1-1.1-2.2-1.8-3.2-1.3-2.1-2.7-4.1-4.3-6.1-1.6-1.9-3.3-3.8-5.2-5.6-1.9-1.8-3.8-3.5-6-5 5.4 1.3 10.2 4 14.5 7.3zm-8.9 170.3c4.4.8 8.7 1.3 12.6 2.4 3.9 1.2 7.6 2.2 10.9 3.6 3.2 1.5 6.1 3 8.7 4.3 2.6 1.3 4.4 3 6.1 4.2 3.3 2.4 5.1 3.9 5.1 3.9s-2.2-.8-6-2.2c-1.9-.7-4-1.8-6.7-2.5s-5.7-1.5-8.9-2.4c-3.3-.8-6.9-1.1-10.6-1.8-3.7-.7-7.8-.6-11.9-1.1-4.1-.3-8.5.1-12.8-.1-4.4.3-8.8.4-13.2.9-4.4.5-8.9.8-13.2 1.6-2.2.4-4.3.7-6.5 1l-6.3 1.2c-8.3 1.5-16 3.4-22.7 4.9-3.3.8-6.4 1.6-9 2.3-2.7.7-5.1 1.3-7 1.8-3.9 1.1-6.1 1.7-6.1 1.7s7.6-5.4 20.4-10.9c3.2-1.3 6.7-2.8 10.5-4.1 3.8-1.3 7.8-2.8 12-3.8 4.2-1.2 8.6-2.3 13.2-3.1 4.5-1 9.2-1.4 13.9-2.1 4.7-.5 9.4-.4 14-.7 4.6.3 9.1.5 13.5 1zM249.7 89.3c.5-1.4 1.3-2.6 2.4-3.9l1.3-1.3c.2-.2.5-.4.7-.7.5-.5.9-1.2 1.4-2 .9-1.5 1.6-3.2 2.3-4.7 1.2-3 2.3-5.3 2.3-5.3s1.4 2.2 1.7 5.8c.2 1.8.2 4-.4 6.5-.4 1.2-.8 2.5-1.7 3.7-.4.6-.9 1.2-1.4 1.8l-1.1 1.1c-.3.4-.8 1.1-1.2 1.7-.3.7-.7 1.4-.9 2.1-.5 1.5-.6 3.1-.5 4.6.1 1.5.3 2.8.6 3.8s.4 1.6.4 1.6-.6-.2-1.6-.8c-.9-.6-2.2-1.6-3.3-3.3-1.1-1.7-1.9-4-1.9-6.7.1-1.2.4-2.6.9-4zm4.5 27.4c6.6.3 11.5 8.8 10.9 19-.5 10.2-6.2 18.1-12.8 17.8-6.6-.3-11.5-8.8-10.9-19 .5-10.2 6.2-18.2 12.8-17.8zm-25 57.3c1.8-1.8 3-2.6 3-2.6s-.6 1.3-1.4 3.6c-.9 2.3-2 5.5-3 9.4-.6 1.9-.9 4-1.4 6.2-.4 2.2-.6 4.5-.8 6.9-.1 1.2-.1 2.4-.2 3.6 0 1.2.2 2.4.2 3.7 0 2.5.6 4.9.9 7.4.5 2.4 1.3 4.8 1.9 7.2 1 2.3 1.7 4.6 2.7 6.8 1.2 2.1 2.2 4.2 3.2 6.3 1.2 1.9 2.4 3.7 3.4 5.5 1 1.7 2 3.3 3 4.7 1 1.3 1.8 2.6 2.5 3.6 1.4 2 2.1 3.3 2.1 3.3s-1.3-.6-3.4-1.9c-1.1-.7-2.4-1.4-3.8-2.4-.7-.5-1.5-1-2.3-1.6-.7-.7-1.5-1.3-2.3-2.1-1.6-1.5-3.4-3-5-4.9-1.5-2-3.2-4.1-4.8-6.4-1.4-2.4-2.7-5-4-7.6-1-2.8-1.9-5.7-2.6-8.6-.4-3-1-6-.8-9-.1-3 .4-5.9.9-8.6.5-2.8 1.4-5.3 2.3-7.7 1-2.4 2-4.5 3.2-6.3 1-1.9 2.3-3.5 3.4-4.9 1.1-1.6 2.1-2.8 3.1-3.6zm-42.6-27.9c.3-2 .9-3.9 1.3-5.9.5-2 .9-3.9 1.8-5.7.7-1.8 1.5-3.7 2.3-5.4.8-1.8 1.9-3.3 2.9-4.9 1.8-3.3 4.4-5.9 6.6-8.5 2.5-2.3 4.8-4.6 7.2-6.2 2.3-1.8 4.6-3.1 6.7-4.2 2.1-1.1 3.9-1.9 5.5-2.5 3.1-1.2 5-1.5 5-1.5s-1.5 1.2-3.8 3.5-5.5 5.5-8.8 9.6c-1.7 2-3.2 4.5-4.9 6.8-1.4 2.6-3.2 5.1-4.4 8.1-.6 1.5-1.4 2.8-1.9 4.4-.5 1.5-1 3.1-1.5 4.6-.7 1.5-.8 3.2-1.2 4.8-.3 1.6-.8 3.2-1 4.9l-.5 5c-.1 1.7-.4 3.3-.3 5 .3 3.3-.2 6.6.4 9.9.5 3.2.7 6.4 1.1 9.4.7 3 1.2 5.8 1.6 8.5.4 2.7 1 5.1 1.6 7.2.6 2.1 1 4.1 1.4 5.7.7 3.2 1 5.1 1 5.1s-1.2-1.4-3.2-4.1c-1-1.3-2.2-3-3.4-4.9-.6-1-1.3-2-2-3.1s-1.2-2.4-1.8-3.7c-1.2-2.6-2.6-5.4-3.9-8.4-1.1-3.1-1.9-6.6-2.9-10.1-.6-1.8-.8-3.6-.9-5.5-.2-1.9-.4-3.8-.5-5.8-.4-4.1.3-8.1.5-12.1zm-65.9 167.2c-3.6 2.2-6.1 5.4-8.5 9l-1.1 1.6-.3.4-.1.1c.2-.3 0 0 .1-.1l-.1.1-.2.5c-.3.7-.8 1.3-1 2.3-.3.8-.6 1.7-.8 2.7-.2 1-.5 1.9-.6 2.9-.7 4-.7 8.2-.7 12.2.1 7.9.8 14.8 1.1 19.7.4 4.9.6 7.8.6 7.8l-1.3.5s-1.8-2.3-4.2-6.8c-1.2-2.2-2.5-5-3.9-8.3-1.3-3.3-2.7-7.1-3.7-11.4-1-4.3-1.9-9.2-1.7-14.8 0-2.8.3-5.7 1.3-8.9.3-1.6 1-3.2 1.9-4.8l.6-1.2.2-.3.3-.4.3-.4 1.1-1.6c3.4-5 8.5-10 14.7-12.7 6.2-2.7 12.1-3.7 17.8-4.6 5.6-.8 11.1-1.5 16.6-2.3 5.4-.7 10.5-1.6 15.5-2.8 9.9-2.3 19.1-5.2 26.7-8.3 3.8-1.5 7.2-3.2 10.1-4.8 2.9-1.7 5.3-3.2 7.2-4.7 1.9-1.4 3.2-2.7 4-3.7.8-1 1.3-1.5 1.3-1.5l1.2.8s-.4.6-1.1 1.8c-.7 1.1-1.9 2.8-3.7 4.5-3.5 3.7-9.2 8-16.7 12.2-3.7 2.1-7.9 4.2-12.3 6.2-4.5 2-9.3 3.8-14.4 5.5-5.1 1.7-10.5 3.2-15.9 4.5-5.3 1.3-10.7 2.5-16.1 3.8-5.5 1.5-10.6 3-14.2 5.3zm51.5 30c-1.9.8-3.8 1.5-5.6 2.4-1.9.8-3.6 1.7-5.4 2.6-1.8.8-3.3 1.9-5 2.7-1.5 1-3.1 1.8-4.4 2.7-5.4 3.5-9.2 6.3-9.2 6.3s1.1-4.7 5.5-10.3c1-1.4 2.3-2.8 3.7-4.3 1.5-1.4 3-2.9 4.8-4.2 1.8-1.4 3.7-2.7 5.7-3.7 2-1.2 4.2-2.1 6.4-3 2.2-.9 4.5-1.5 6.8-2.1 2.3-.5 4.6-.8 6.7-1.1 2.2-.2 4.3-.1 6.4-.1 2 0 3.9.4 5.6.6 3.5.4 6.2 1.4 8.1 2.1 1.9.7 3 1.2 3 1.2s-1.2.3-3.1.7c-1 .2-2.2.4-3.5.6-1.3.1-2.8.6-4.4.9-1.6.4-3.3.6-5.1 1.1-1.8.4-3.6.9-5.5 1.3-1.9.5-3.8 1.1-5.8 1.7-1.8.6-3.8 1.1-5.7 1.9zm75.8 63.9c-2.8 2.9-6.2 6.1-10.1 9.4-2 1.6-3.9 3.3-6.1 4.9-2.2 1.6-4.4 3.2-6.7 4.6-2.2 1.6-4.6 3-7 4.4-2.3 1.5-4.9 2.7-7.3 3.6-2.5 1-5.2 1.4-7.6 1.7-2.5.4-5 .2-7.1.1-2.2 0-4.3-.8-6-1.2-1.7-.4-3.2-1.2-4.3-1.9-2.3-1.3-3.3-2.3-3.3-2.3l.4-1.1s1.5-.4 3.8-.8c1.1-.2 2.4-.3 3.9-.9 1.5-.5 3.1-.7 4.8-1.3.9-.3 1.7-.6 2.7-.9.9-.3 1.8-.5 2.8-.9 1.9-.9 4-1.3 6.1-2.2 2.1-.8 4.4-1.3 6.8-2.1 2.4-.7 4.7-1.6 7-2.6 4.7-2 9.1-4.6 13.4-6.9 4.2-2.5 8.1-4.8 11.4-7 6.6-4.3 10.8-7.5 10.8-7.5l.8.9c-.2.1-3.5 4.3-9.2 10zm88.1 25.8c-1.1.7-2.6 1.5-4.3 1.9-1.7.4-3.8 1.2-6 1.2-2.2.1-4.7.3-7.1-.1-2.4-.4-5.2-.7-7.6-1.7-2.5-1-5-2.1-7.3-3.6-2.4-1.4-4.8-2.8-7-4.4-2.3-1.4-4.5-3.1-6.7-4.6-2.2-1.5-4.2-3.3-6.1-4.9-3.9-3.3-7.3-6.5-10.1-9.4-5.7-5.7-9-9.9-9-9.9l.8-.9s4.2 3.2 10.8 7.5c3.3 2.2 7.2 4.5 11.4 7 4.3 2.3 8.8 4.9 13.4 6.9 2.3 1 4.7 2 7 2.6 2.3.8 4.6 1.3 6.8 2.1 2.1.9 4.2 1.3 6.1 2.2 1 .5 1.9.7 2.8.9l2.7.9c1.7.6 3.3.9 4.8 1.3 1.5.5 2.8.7 3.9.9 2.3.4 3.8.8 3.8.8l.4 1.1c-.2-.1-1.2.9-3.5 2.2zm76.2-75.1c-1.4 3.3-2.7 6.1-3.9 8.3-2.4 4.5-4.2 6.8-4.2 6.8l-1.3-.5s.2-2.8.6-7.8c.3-4.9 1-11.8 1.1-19.7 0-3.9 0-8.2-.7-12.2-.1-1-.4-1.9-.6-2.9-.1-1-.5-1.8-.8-2.7-.2-.9-.7-1.6-1-2.3l-.2-.5-.1-.1c0 .1-.1-.2.1.1l-.1-.1-.3-.4-1.1-1.6c-2.4-3.6-5-6.8-8.5-9-3.6-2.4-8.7-3.8-13.9-5.3-5.4-1.3-10.8-2.5-16.1-3.8-5.4-1.3-10.8-2.8-15.9-4.5-5.1-1.7-9.9-3.5-14.4-5.5s-8.6-4.1-12.3-6.2c-7.4-4.2-13.2-8.5-16.7-12.2-1.8-1.8-3-3.4-3.7-4.5-.7-1.2-1.1-1.8-1.1-1.8l1.2-.8s.4.5 1.3 1.5c.8.9 2.1 2.3 4 3.7 1.8 1.5 4.3 3 7.2 4.7 2.9 1.6 6.3 3.3 10.1 4.8 7.6 3.2 16.8 6 26.7 8.3 5 1.1 10.1 2 15.5 2.8 5.5.7 11 1.5 16.6 2.3 5.7.9 11.6 1.8 17.8 4.6 6.3 2.7 11.4 7.7 14.7 12.7l1.1 1.6.3.4.3.4.2.3.6 1.2c.8 1.6 1.5 3.2 1.9 4.8 1 3.2 1.2 6.1 1.3 8.9.2 5.6-.7 10.4-1.7 14.8-1.3 4.4-2.8 8.2-4 11.4z"/></svg>