<svg id="Layer_1" data-name="Layer 1" xmlns="http://www.w3.org/2000/svg" viewBox="0 0 49.25 49.25"><title>twitter</title><path fill="#24A9E6" d="M272.2,4.13a24.62,24.62,0,1,0,24.62,24.62A24.63,24.63,0,0,0,272.2,4.13Zm10.74,20.52c0,0.23,0,.46,0,0.69a15.2,15.2,0,0,1-23.4,12.81,10.93,10.93,0,0,0,1.27.07,10.72,10.72,0,0,0,6.64-2.29,5.35,5.35,0,0,1-5-3.71,5.22,5.22,0,0,0,1,.1,5.31,5.31,0,0,0,1.41-.19,5.35,5.35,0,0,1-4.29-5.24s0,0,0-.07a5.33,5.33,0,0,0,2.42.67,5.35,5.35,0,0,1-1.65-7.14,15.18,15.18,0,0,0,11,5.58,5.35,5.35,0,0,1,9.11-4.88,10.68,10.68,0,0,0,3.39-1.3,5.36,5.36,0,0,1-2.35,3,10.69,10.69,0,0,0,3.07-.84A10.8,10.8,0,0,1,282.93,24.65Z" transform="translate(-247.57 -4.13)"/></svg>
