<?xml version="1.0" encoding="utf-8"?>
<!-- Generator: Adobe Illustrator 18.0.0, SVG Export Plug-In . SVG Version: 6.00 Build 0)  -->
<!DOCTYPE svg PUBLIC "-//W3C//DTD SVG 1.1//EN" "http://www.w3.org/Graphics/SVG/1.1/DTD/svg11.dtd">
<svg version="1.1" xmlns="http://www.w3.org/2000/svg" xmlns:xlink="http://www.w3.org/1999/xlink" x="0px" y="0px"
	 viewBox="0 0 144 152" enable-background="new 0 0 144 152" xml:space="preserve">
<g id="work" display="none">
	<g id="logotype" display="inline">
		<g id="logotype_original">
		</g>
		<g id="k_development">
		</g>
		<g id="r_development">
		</g>
		<g id="e_development">
		</g>
	</g>
	<g id="logo_v1" display="inline">
	</g>
	<g id="logo_v2" display="inline">
	</g>
	<g id="logo_v3__x28_stroke_x29_" display="inline">
		<g id="logo-8pt-stroke">
		</g>
		<g id="logo-9pt-stroke">
		</g>
		<g id="logo-9pt-expanded">
		</g>
	</g>
</g>
<g id="gradient">
	<g>
		<radialGradient id="SVGID_1_" cx="72" cy="76" r="53.5023" gradientUnits="userSpaceOnUse">
			<stop  offset="0" style="stop-color:#844DB8"/>
			<stop  offset="1" style="stop-color:#5B16A3"/>
		</radialGradient>
		<path fill="url(#SVGID_1_)" d="M100.8,36H43.2c-4,0-7.2,3.2-7.2,7.2v65.6c0,4,3.2,7.2,7.2,7.2h57.6c4,0,7.2-3.2,7.2-7.2V43.2
			C108,39.2,104.8,36,100.8,36z"/>
		<linearGradient id="SVGID_6_" gradientUnits="userSpaceOnUse" x1="36.5" y1="111.5" x2="112.7647" y2="35.2352">
			<stop  offset="0" style="stop-color:#675DC6;stop-opacity:0.5"/>
			<stop  offset="1" style="stop-color:#675DC6;stop-opacity:0"/>
		</linearGradient>
		<path fill="url(#SVGID_6_)" d="M100.8,36H43.2c-4,0-7.2,3.2-7.2,7.2v65.6c0,4,3.2,7.2,7.2,7.2h57.6c4,0,7.2-3.2,7.2-7.2V43.2
			C108,39.2,104.8,36,100.8,36z"/>
	</g>
</g>
<g id="white">
	<g id="logo_6_">
		<polygon fill="#FFFFFF" points="54,104 63,96 54,88 		"/>
		<path fill="#FFFFFF" d="M86.5,71.6C84.9,69.9,81.9,68,77,68c-5.4,0-11,1.4-15,2.7V48h-8v34.7l5.7-2.6c0.1,0,9.2-4.1,17.3-4.1
			c4.1,0,5,2.2,5,4.1V104h8l0-24C90,79.5,90,75.1,86.5,71.6z"/>
		<path fill="#FFFFFF" d="M76,61h8c3.6-4.1,5.5-8.5,6-13h-8C81.1,52.5,79.1,56.9,76,61z"/>
	</g>
</g>
<g id="black">
</g>
<g id="purple">
</g>
</svg>
