<svg version="1.1" id="Layer_1" xmlns="http://www.w3.org/2000/svg" xmlns:xlink="http://www.w3.org/1999/xlink" x="0px" y="0px"
	 viewBox="0 0 132.5 132.5" enable-background="new 0 0 132.5 132.5" xml:space="preserve">
<g>
	<g>
		<circle fill="#82BC00" cx="66.2" cy="66.2" r="25.3"/>
		<g>
			<path fill="#82BC00" d="M66.2,25.3c11.3,0,21.5,4.6,28.9,12l17.9-17.9C101.1,7.4,84.5,0,66.2,0C29.7,0,0,29.6,0,66.2h25.3
				C25.3,43.6,43.6,25.3,66.2,25.3z"/>
			<path fill="#82BC00" d="M107.2,66.2c0,22.6-18.3,40.9-40.9,40.9c-11.3,0-21.5-4.6-29-12L19.4,113c12,12,28.5,19.4,46.8,19.4
				c36.6,0,66.3-29.7,66.3-66.2H107.2z"/>
		</g>
	</g>
</g>
</svg>